Coordinates
version=1
nRows=24
nColumns=24
inDegrees=yes

Units are S.I. units (second, meters, Newtons, ...)
Angles are in degrees.

endheader
time	pelvis_tilt	pelvis_list	pelvis_rotation	pelvis_tx	pelvis_ty	pelvis_tz	hip_flexion_r	hip_adduction_r	hip_rotation_r	knee_angle_r	ankle_angle_r	subtalar_angle_r	mtp_angle_r	hip_flexion_l	hip_adduction_l	hip_rotation_l	knee_angle_l	ankle_angle_l	subtalar_angle_l	mtp_angle_l	lumbar_extension	lumbar_bending	lumbar_rotation
      6.03500000	     36.17578154	      3.07771179	      6.04901639	      1.32345820	      0.67604399	     -0.24584682	    -30.24181970	      4.09164539	     -6.37565952	    -12.47937917	     17.42326958	      7.25790110	      0.00000000	    -20.68568258	     -4.72632634	     -5.31012051	    -67.74239802	      4.72214410	     -4.47479012	      0.00000000	    -62.03384928	      1.89567436	     -5.24926854
      6.04000000	     36.12293166	      3.12512651	      5.73009410	      1.32832661	      0.67648514	     -0.24581796	    -30.83954005	      3.91605664	     -6.26602541	    -12.12222591	     17.64652060	      7.48843613	      0.00000000	    -19.83562363	     -4.34133055	     -5.58897608	    -67.52399597	      5.52981923	     -3.88678686	      0.00000000	    -62.05918231	      1.66709657	     -5.09944915
      6.04500000	     36.07017189	      3.17438831	      5.43859970	      1.33318572	      0.67685666	     -0.24581025	    -31.43423406	      3.75121376	     -6.19779913	    -11.76752340	     17.87241503	      7.69421999	      0.00000000	    -18.99117490	     -3.97574489	     -5.85328376	    -67.23435033	      6.28177033	     -3.31507452	      0.00000000	    -62.09117861	      1.44775700	     -4.95703158
      6.05000000	     36.02065747	      3.21634342	      5.16202423	      1.33802106	      0.67716504	     -0.24584150	    -32.02383573	      3.59542098	     -6.15218242	    -11.42138937	     18.10473883	      7.90053835	      0.00000000	    -18.15904803	     -3.62433150	     -6.09827270	    -66.86981500	      6.98873761	     -2.73775664	      0.00000000	    -62.13015507	      1.25337312	     -4.81696801
      6.05500000	     35.97489953	      3.25405813	      4.90667992	      1.34284465	      0.67740420	     -0.24590655	    -32.61022498	      3.45170497	     -6.12680615	    -11.08685998	     18.34207615	      8.10465147	      0.00000000	    -17.34121326	     -3.29131222	     -6.32747347	    -66.43206984	      7.64292324	     -2.17551394	      0.00000000	    -62.17706659	      1.08026377	     -4.67768473
      6.06000000	     35.94050622	      3.28389656	      4.66539114	      1.34765887	      0.67758214	     -0.24600620	    -33.20338333	      3.31862902	     -6.09605687	    -10.76048206	     18.59654157	      8.33677524	      0.00000000	    -16.55189612	     -2.98058516	     -6.54909799	    -65.91411619	      8.24224033	     -1.61022054	      0.00000000	    -62.23404675	      0.93366052	     -4.53553634
      6.06500000	     35.90338828	      3.30593569	      4.43933034	      1.35246806	      0.67769164	     -0.24611505	    -33.78628753	      3.20053480	     -6.11316296	    -10.44373147	     18.85052517	      8.53068663	      0.00000000	    -15.77534106	     -2.68442409	     -6.74654151	    -65.31797316	      8.79290765	     -1.10666685	      0.00000000	    -62.29286530	      0.79099411	     -4.39465457
      6.07000000	     35.85769376	      3.32569910	      4.25318314	      1.35726456	      0.67772666	     -0.24628377	    -34.35236817	      3.10255272	     -6.15691491	    -10.14228385	     19.10080670	      8.67786651	      0.00000000	    -15.00334125	     -2.40876704	     -6.92337377	    -64.64232488	      9.29605273	     -0.68929362	      0.00000000	    -62.34598136	      0.69192674	     -4.25139872
      6.07500000	     35.86062502	      3.32539963	      4.03814633	      1.36206352	      0.67772127	     -0.24638416	    -34.96794930	      3.00896511	     -6.16422251	     -9.84511516	     19.41478131	      8.98124722	      0.00000000	    -14.31470557	     -2.18255058	     -7.14532289	    -63.88409386	      9.72264940	     -0.16966675	      0.00000000	    -62.44360230	      0.58091506	     -4.12368541
      6.08000000	     35.81413083	      3.34246858	      3.90286702	      1.36680253	      0.67761817	     -0.24656754	    -35.51125795	      2.94312979	     -6.22382808	     -9.57825247	     19.65510277	      9.08751107	      0.00000000	    -13.56933852	     -1.94645733	     -7.28531727	    -63.06060676	     10.12645170	      0.14379998	      0.00000000	    -62.51795630	      0.49838583	     -3.97132749
      6.08500000	     35.78717636	      3.33729531	      3.73626451	      1.37162209	      0.67747745	     -0.24671967	    -36.07860935	      2.87684572	     -6.28401230	     -9.31824167	     19.97143536	      9.31320982	      0.00000000	    -12.90204538	     -1.74621219	     -7.46278465	    -62.12293783	     10.48776138	      0.57012539	      0.00000000	    -62.57667707	      0.42179053	     -3.84107890
      6.09000000	     35.76873031	      3.32657892	      3.58937860	      1.37641437	      0.67726788	     -0.24686807	    -36.64620230	      2.82831082	     -6.34826424	     -9.07231384	     20.27704900	      9.52023605	      0.00000000	    -12.26224388	     -1.56977641	     -7.63473281	    -61.11337035	     10.80724742	      0.90370698	      0.00000000	    -62.66082549	      0.34744311	     -3.69324288
      6.09500000	     35.77297613	      3.30204324	      3.43398919	      1.38120569	      0.67700763	     -0.24699413	    -37.24049744	      2.78863827	     -6.39433715	     -8.81899775	     20.60779711	      9.76009636	      0.00000000	    -11.67992792	     -1.42402793	     -7.83295662	    -60.01883292	     11.07513435	      1.21204828	      0.00000000	    -62.77002920	      0.26892047	     -3.55098338
      6.10000000	     35.70749116	      3.24201020	      3.41639943	      1.38596657	      0.67661317	     -0.24723524	    -37.74016692	      2.86625796	     -6.42805131	     -8.60015337	     20.87614788	      9.76738888	      0.00000000	    -11.00584261	     -1.34004730	     -7.90856923	    -58.89296938	     11.32269957	      1.32137402	      0.00000000	    -62.80157149	      0.31678001	     -3.40180563
      6.10500000	     35.64951870	      3.23141265	      3.28733536	      1.39076232	      0.67623409	     -0.24738950	    -38.22618662	      2.81631963	     -6.54217290	     -8.43680257	     21.19714829	      9.98228530	      0.00000000	    -10.43247028	     -1.19758657	     -8.09092365	    -57.59749805	     11.59780573	      1.71095154	      0.00000000	    -62.86039469	      0.24229355	     -3.24861058
      6.11000000	     35.77015838	      3.17169305	      3.06269293	      1.39558080	      0.67590518	     -0.24746393	    -38.92661016	      2.76148270	     -6.54358436	     -8.23030080	     21.57101505	     10.30718164	      0.00000000	    -10.13623036	     -1.11834323	     -8.42365782	    -56.15999200	     11.76779524	      1.90792436	      0.00000000	    -63.06711518	      0.13249423	     -3.03609142
      6.11500000	     35.68605030	      3.11433044	      3.02897003	      1.40039962	      0.67538168	     -0.24762257	    -39.38511769	      2.82333529	     -6.59326504	     -8.06778516	     21.87700403	     10.38614614	      0.00000000	     -9.57935043	     -1.07750263	     -8.56744165	    -54.72874522	     11.94721076	      2.21548877	      0.00000000	    -63.07756792	      0.13935325	     -2.91475860
      6.12000000	     35.68614855	      3.02560934	      2.90774114	      1.40520179	      0.67487368	     -0.24778051	    -39.91655732	      2.84512788	     -6.59945046	     -7.93522571	     22.21726665	     10.59490447	      0.00000000	     -9.19403364	     -1.05471105	     -8.82483026	    -53.15248246	     12.14221937	      2.44624938	      0.00000000	    -63.17435327	      0.12023376	     -2.71947922
      6.12500000	     35.57712123	      2.95214048	      2.92734167	      1.41001897	      0.67424570	     -0.24798556	    -40.32930769	      2.94994788	     -6.67794031	     -7.81332009	     22.49124812	     10.62796459	      0.00000000	     -8.68620825	     -1.05014255	     -8.95629871	    -51.53655866	     12.29970136	      2.73026176	      0.00000000	    -63.16392002	      0.17243710	     -2.56786143
      6.13000000	     35.58856089	      2.82737030	      2.78344138	      1.41486324	      0.67367504	     -0.24808216	    -40.86175438	      2.98712145	     -6.63500205	     -7.70715495	     22.85297091	     10.86201091	      0.00000000	     -8.41962407	     -1.08866901	     -9.29880301	    -49.75081613	     12.46519889	      3.03379844	      0.00000000	    -63.25394966	      0.13747212	     -2.36341205
      6.13500000	     35.47007217	      2.73966320	      2.82132630	      1.41971619	      0.67297879	     -0.24827008	    -41.25402600	      3.11509415	     -6.70171365	     -7.61463907	     23.11877601	     10.89597516	      0.00000000	     -8.00087102	     -1.12116730	     -9.47386305	    -47.93109321	     12.58649267	      3.40245375	      0.00000000	    -63.22433203	      0.19641859	     -2.21566184
      6.14000000	     35.47646436	      2.58684158	      2.68293870	      1.42457858	      0.67234872	     -0.24838319	    -41.76231270	      3.17141977	     -6.62243318	     -7.54779266	     23.45258043	     11.08925479	      0.00000000	     -7.83447374	     -1.19575987	     -9.86813810	    -45.93638686	     12.74798359	      3.76262833	      0.00000000	    -63.30622577	      0.17931977	     -1.98521036
      6.14500000	     35.33740537	      2.47933429	      2.75233104	      1.42947096	      0.67158411	     -0.24858952	    -42.12265104	      3.33231347	     -6.67847759	     -7.48277990	     23.70363525	     11.12333326	      0.00000000	     -7.49224795	     -1.25843279	    -10.06699382	    -43.92193016	     12.82705997	      4.22697832	      0.00000000	    -63.24431229	      0.26462958	     -1.84586214
      6.15000000	     35.23927790	      2.33310080	      2.74402651	      1.43439155	      0.67082957	     -0.24876557	    -42.51381848	      3.46467244	     -6.67217509	     -7.44301650	     23.99206439	     11.25715595	      0.00000000	     -7.27932654	     -1.35177162	    -10.39388647	    -41.77844349	     12.92770763	      4.76318042	      0.00000000	    -63.21368004	      0.32104240	     -1.66659208
